<?xml version="1.0" encoding="UTF-8"?>
<svg width="59px" height="74px" viewBox="0 0 59 74" version="1.1" xmlns="http://www.w3.org/2000/svg" xmlns:xlink="http://www.w3.org/1999/xlink">
    <!-- Generator: Sketch 49 (51002) - http://www.bohemiancoding.com/sketch -->
    <title>Account_icn</title>
    <desc>Created with Sketch.</desc>
    <defs></defs>
    <g id="Page-1" stroke="none" stroke-width="1" fill="none" fill-rule="evenodd">
        <g id="Artboard" transform="translate(-1765.000000, -534.000000)" fill="#3D3BEE" fill-rule="nonzero">
            <g id="Account_icn" transform="translate(1765.000000, 534.000000)">
                <path d="M59,68.4893617 C59,71.5175212 56.5133211,74 53.4304217,74 L5.56957831,74 C2.50022195,74 0,71.5269504 0,68.4893617 C0,52.4025995 13.2075998,39.3617021 29.5,39.3617021 C45.7924002,39.3617021 59,52.4025995 59,68.4893617 Z M29.5,47.2340426 C18.4194324,47.2340426 9.29418963,55.500117 8.10435672,66.1276596 L50.8956433,66.1276596 C49.7058104,55.500117 40.5805676,47.2340426 29.5,47.2340426 Z M29.5,36.212766 C19.3722919,36.212766 11.1621622,28.1062621 11.1621622,18.106383 C11.1621622,8.10650382 19.3722919,0 29.5,0 C39.6277081,0 47.8378378,8.10650382 47.8378378,18.106383 C47.8378378,28.1062621 39.6277081,36.212766 29.5,36.212766 Z M29.5,28.3404255 C35.2243568,28.3404255 39.8648649,23.7584887 39.8648649,18.106383 C39.8648649,12.4542773 35.2243568,7.87234043 29.5,7.87234043 C23.7756432,7.87234043 19.1351351,12.4542773 19.1351351,18.106383 C19.1351351,23.7584887 23.7756432,28.3404255 29.5,28.3404255 Z" id="Shape"></path>
            </g>
        </g>
    </g>
</svg>