<?xml version="1.0" encoding="UTF-8"?>
<svg width="80px" height="80px" viewBox="0 0 80 80" version="1.1" xmlns="http://www.w3.org/2000/svg" xmlns:xlink="http://www.w3.org/1999/xlink">
    <!-- Generator: Sketch 49 (51002) - http://www.bohemiancoding.com/sketch -->
    <title>Account_sml</title>
    <desc>Created with Sketch.</desc>
    <defs></defs>
    <g id="Page-1" stroke="none" stroke-width="1" fill="none" fill-rule="evenodd">
        <g id="Artboard" transform="translate(-1983.000000, -357.000000)">
            <g id="Account_sml" transform="translate(1983.000000, 357.000000)">
                <circle id="Oval-3" fill="#F0F0FF" cx="40" cy="40" r="40"></circle>
                <path d="M55,54.1702128 C55,55.7252136 53.735587,57 52.168011,57 L27.831989,57 C26.2712993,57 25,55.7300556 25,54.1702128 C25,45.909443 31.7157287,39.212766 40,39.212766 C48.2842713,39.212766 55,45.909443 55,54.1702128 Z M40,43.2553191 C34.3658131,43.2553191 29.7258591,47.5000601 29.1208594,52.9574468 L50.8791406,52.9574468 C50.2741409,47.5000601 45.6341869,43.2553191 40,43.2553191 Z M40,37.5957447 C34.8503179,37.5957447 30.6756757,33.4329454 30.6756757,28.2978723 C30.6756757,23.1627993 34.8503179,19 40,19 C45.1496821,19 49.3243243,23.1627993 49.3243243,28.2978723 C49.3243243,33.4329454 45.1496821,37.5957447 40,37.5957447 Z M40,33.5531915 C42.9106899,33.5531915 45.2702703,31.200305 45.2702703,28.2978723 C45.2702703,25.3954397 42.9106899,23.0425532 40,23.0425532 C37.0893101,23.0425532 34.7297297,25.3954397 34.7297297,28.2978723 C34.7297297,31.200305 37.0893101,33.5531915 40,33.5531915 Z" id="Shape-Copy" fill="#3D3BEE" fill-rule="nonzero"></path>
            </g>
        </g>
    </g>
</svg>