<?xml version="1.0" encoding="UTF-8"?>
<svg width="120px" height="120px" viewBox="0 0 120 120" version="1.1" xmlns="http://www.w3.org/2000/svg" xmlns:xlink="http://www.w3.org/1999/xlink">
    <!-- Generator: Sketch 49 (51002) - http://www.bohemiancoding.com/sketch -->
    <title>Group 2</title>
    <desc>Created with Sketch.</desc>
    <defs></defs>
    <g id="Page-1" stroke="none" stroke-width="1" fill="none" fill-rule="evenodd">
        <g id="Artboard" transform="translate(-3135.000000, -359.000000)" fill="#E21E1E" fill-rule="nonzero">
            <g id="Group-2" transform="translate(3135.000000, 359.000000)">
                <path d="M59.6043956,119.208791 C26.6373626,119.208791 0,92.5714286 0,59.6043956 C0,26.6373626 26.6373626,0 59.6043956,0 C92.5714286,0 119.208791,26.6373626 119.208791,59.6043956 C119.208791,92.5714286 92.5714286,119.208791 59.6043956,119.208791 Z M59.6043956,5.67032967 C29.8021978,5.67032967 5.67032967,29.8021978 5.67032967,59.6043956 C5.67032967,89.4065934 29.8021978,113.538462 59.6043956,113.538462 C89.4065934,113.538462 113.538462,89.4065934 113.538462,59.6043956 C113.538462,29.8021978 89.4065934,5.67032967 59.6043956,5.67032967 Z" id="Shape"></path>
                <path d="M59.6043956,70.9450549 C58.021978,70.9450549 56.7032967,69.6263736 56.7032967,68.043956 L56.7032967,35.4725275 C56.7032967,33.8901099 58.021978,32.5714286 59.6043956,32.5714286 C61.1868132,32.5714286 62.5054945,33.8901099 62.5054945,35.4725275 L62.5054945,68.1758242 C62.5054945,69.6263736 61.1868132,70.9450549 59.6043956,70.9450549 Z" id="Shape"></path>
                <circle id="Oval" cx="59.6043956" cy="82.2857143" r="2.9010989"></circle>
                <path d="M59.6043956,86.6373626 C57.2307692,86.6373626 55.3846154,84.7912088 55.3846154,82.4175824 C55.3846154,80.043956 57.2307692,78.1978022 59.6043956,78.1978022 C61.978022,78.1978022 63.8241758,80.043956 63.8241758,82.4175824 C63.8241758,84.7912088 61.978022,86.6373626 59.6043956,86.6373626 Z M59.6043956,80.967033 C58.8131868,80.967033 58.1538462,81.4945055 58.1538462,82.4175824 C58.1538462,83.2087912 58.6813187,83.8681319 59.6043956,83.8681319 C60.5274725,83.8681319 61.0549451,83.3406593 61.0549451,82.4175824 C61.0549451,81.4945055 60.3956044,80.967033 59.6043956,80.967033 Z" id="Shape"></path>
            </g>
        </g>
    </g>
</svg>