<?xml version="1.0" encoding="UTF-8"?>
<svg width="138px" height="273px" viewBox="0 0 138 273" version="1.1" xmlns="http://www.w3.org/2000/svg" xmlns:xlink="http://www.w3.org/1999/xlink">
    <!-- Generator: Sketch 49 (51002) - http://www.bohemiancoding.com/sketch -->
    <title>Group 8</title>
    <desc>Created with Sketch.</desc>
    <defs></defs>
    <g id="Page-1" stroke="none" stroke-width="1" fill="none" fill-rule="evenodd">
        <g id="Artboard" transform="translate(-2734.000000, -778.000000)">
            <g id="Group-8" transform="translate(2734.000000, 778.000000)">
                <g id="Group-5">
                    <text id="Upload" font-family="AvenirNext-Medium, Avenir Next" font-size="22" font-weight="400" fill="#3D3BEE">
                        <tspan x="31.677" y="126">Upload</tspan>
                    </text>
                    <rect id="Rectangle-3" stroke="#3D3BEE" stroke-width="4" x="2" y="2" width="134" height="171" rx="20"></rect>
                    <path d="M7.40923435,8.69794105 L28.4679174,35.9115398" id="Line-2" stroke="#3D3BEE" stroke-width="4" stroke-linecap="square"></path>
                    <path d="M109.040004,139.18946 L129.847769,166.078805" id="Line-2-Copy" stroke="#3D3BEE" stroke-width="4" stroke-linecap="square"></path>
                    <path d="M8.02242151,210 L8,210 L8,190 L8.02242151,190 C8.00758131,189.835319 8,189.668545 8,189.5 C8,186.462434 10.4624339,184 13.5,184 C16.5375661,184 19,186.462434 19,189.5 C19,189.668545 18.9924187,189.835319 18.9775785,190 L19,190 L19,210 L18.9775785,210 C18.7249641,212.80325 16.3690213,215 13.5,215 C10.6309787,215 8.2750359,212.80325 8.02242151,210 Z" id="Combined-Shape" fill="#ACA8C3"></path>
                    <path d="M23.0224215,224 L23,224 L23,204 L23.0224215,204 C23.0075813,203.835319 23,203.668545 23,203.5 C23,200.462434 25.4624339,198 28.5,198 C31.5375661,198 34,200.462434 34,203.5 C34,203.668545 33.9924187,203.835319 33.9775785,204 L34,204 L34,224 L33.9775785,224 C33.7249641,226.80325 31.3690213,229 28.5,229 C25.6309787,229 23.2750359,226.80325 23.0224215,224 Z" id="Combined-Shape-Copy-3" fill="#ACA8C3"></path>
                    <path d="M64.0224215,215 L64,215 L64,195 L64.0224215,195 C64.0075813,194.835319 64,194.668545 64,194.5 C64,191.462434 66.4624339,189 69.5,189 C72.5375661,189 75,191.462434 75,194.5 C75,194.668545 74.9924187,194.835319 74.9775785,195 L75,195 L75,215 L74.9775785,215 C74.7249641,217.80325 72.3690213,220 69.5,220 C66.6309787,220 64.2750359,217.80325 64.0224215,215 Z" id="Combined-Shape-Copy-5" fill="#ACA8C3"></path>
                    <path d="M123.022422,215 L123,215 L123,195 L123.022422,195 C123.007581,194.835319 123,194.668545 123,194.5 C123,191.462434 125.462434,189 128.5,189 C131.537566,189 134,191.462434 134,194.5 C134,194.668545 133.992419,194.835319 133.977578,195 L134,195 L134,215 L133.977578,215 C133.724964,217.80325 131.369021,220 128.5,220 C125.630979,220 123.275036,217.80325 123.022422,215 Z" id="Combined-Shape-Copy-8" fill="#ACA8C3"></path>
                    <path d="M82.0224215,224 L82,224 L82,204 L82.0224215,204 C82.0075813,203.835319 82,203.668545 82,203.5 C82,200.462434 84.4624339,198 87.5,198 C90.5375661,198 93,200.462434 93,203.5 C93,203.668545 92.9924187,203.835319 92.9775785,204 L93,204 L93,224 L92.9775785,224 C92.7249641,226.80325 90.3690213,229 87.5,229 C84.6309787,229 82.2750359,226.80325 82.0224215,224 Z" id="Combined-Shape-Copy-6" fill="#ACA8C3"></path>
                    <path d="M43.0224215,255 L43,255 L43,202 L43.0224215,202 C43.0075813,201.835319 43,201.668545 43,201.5 C43,198.462434 45.4624339,196 48.5,196 C51.5375661,196 54,198.462434 54,201.5 C54,201.668545 53.9924187,201.835319 53.9775785,202 L54,202 L54,255 L53.9775785,255 C53.7249641,257.80325 51.3690213,260 48.5,260 C45.6309787,260 43.2750359,257.80325 43.0224215,255 Z" id="Combined-Shape-Copy-4" fill="#ACA8C3"></path>
                    <path d="M102.022422,268 L102,268 L102,215 L102.022422,215 C102.007581,214.835319 102,214.668545 102,214.5 C102,211.462434 104.462434,209 107.5,209 C110.537566,209 113,211.462434 113,214.5 C113,214.668545 112.992419,214.835319 112.977578,215 L113,215 L113,268 L112.977578,268 C112.724964,270.80325 110.369021,273 107.5,273 C104.630979,273 102.275036,270.80325 102.022422,268 Z" id="Combined-Shape-Copy-7" fill="#ACA8C3"></path>
                    <circle id="Oval-2-Copy-6" fill="#ACA8C3" cx="81" cy="236" r="3"></circle>
                    <path d="M71.164042,94.2984596 L71.164042,44.8095976 L81.0207964,54.6655116 C81.3533411,54.9981326 81.7882013,55.1640229 82.2236727,55.1640229 C82.6592971,55.1640229 83.0940808,54.9981326 83.4267019,54.6655116 C84.0911034,54.0010336 84.0911034,52.9240841 83.4267019,52.2596061 L70.6653778,39.4983585 C70.0010527,38.8338805 68.9239504,38.8338805 68.2595488,39.4983585 L55.4983012,52.2596061 C54.8338996,52.9240841 54.8338996,54.0010336 55.4983012,54.6655116 C56.1627792,55.3299131 57.239805,55.3299131 57.904283,54.6655116 L67.7610375,44.8095976 L67.7610375,94.2984596 C67.7610375,95.2377148 68.5232463,96 69.4625015,96 C70.4017567,96 71.164042,95.2377148 71.164042,94.2984596 Z" id="Page-1" fill="#3D3BEE"></path>
                </g>
            </g>
        </g>
    </g>
</svg>